PathFileType	4	(X/Y/Z)	Walk9.trc
DataRate	CameraRate	NumFrames	NumMarkers	Units	OrigDataRate	OrigDataStartFrame	OrigNumFrames
200.000000	200.000000	4	59	mm	200.000000	292	528
Frame#	Times		LFHD		RBHD		C7		T10		CLAV		STRN		RBack		LASI		RASI		RPSI		RACR1		RUA1		RElbow		RFA1		RWRR		RWRU		RCAR		LACR1		LUA1		LFA1		LWRR		LCAR		RTH1		RTH3		RTH2		RTH4		RLFC		LTH1		LTH3		LTH2		LTH4		LLFC		LTB1		LTB3		LTB2		LTB4		LLMAL		LMMAL		LMT1		LMT5		LToe		LPSI		RFHD		LElbowM		LElbow		LBHD		RMMAL		LWRU		RTB4		RTB2		RTB1		RTB3		RToe		RCAL		RElbowM		RMT1		RLMAL		RMT5		LCAL
			X1	Y1	Z1	X2	Y2	Z2	X3	Y3	Z3	X4	Y4	Z4	X5	Y5	Z5	X6	Y6	Z6	X7	Y7	Z7	X8	Y8	Z8	X9	Y9	Z9	X10	Y10	Z10	X11	Y11	Z11	X12	Y12	Z12	X13	Y13	Z13	X14	Y14	Z14	X15	Y15	Z15	X16	Y16	Z16	X17	Y17	Z17	X18	Y18	Z18	X19	Y19	Z19	X20	Y20	Z20	X21	Y21	Z21	X22	Y22	Z22	X23	Y23	Z23	X24	Y24	Z24	X25	Y25	Z25	X26	Y26	Z26	X27	Y27	Z27	X28	Y28	Z28	X29	Y29	Z29	X30	Y30	Z30	X31	Y31	Z31	X32	Y32	Z32	X33	Y33	Z33	X34	Y34	Z34	X35	Y35	Z35	X36	Y36	Z36	X37	Y37	Z37	X38	Y38	Z38	X39	Y39	Z39	X40	Y40	Z40	X41	Y41	Z41	X42	Y42	Z42	X43	Y43	Z43	X44	Y44	Z44	X45	Y45	Z45	X46	Y46	Z46	X47	Y47	Z47	X48	Y48	Z48	X49	Y49	Z49	X50	Y50	Z50	X51	Y51	Z51	X52	Y52	Z52	X53	Y53	Z53	X54	Y54	Z54	X55	Y55	Z55	X56	Y56	Z56	X57	Y57	Z57	X58	Y58	Z58	X59	Y59	Z59

292	1.46	-152	1591.1	-77.824	-314.79	1552.7	33.388	-320.33	1424.6	-42.912	-351.72	1140.6	-41.561	-194.6	1348.2	-52.075	-117.52	1124.1	-52.835	-362.38	1319.5	51.568	-179.63	939.15	-174.3	-163.47	957.91	94.591	-380.75	986.22	36.131	-243.07	1357	123.59	-285.32	1148.1	184.04	-317.53	1045.1	205.06	-273.55	899.64	219.47	-264.98	791.63	185.2	-316.1	795.28	238.89	-276.55	747.43	235.75	-262.69	1365.9	-217.53	-274.91	1159.5	-272.28	-200.23	931.57	-287.7	-150.4	830.27	-240.84	-136.97	787.41	-281.77	-218.81	762.32	153.93	-144.31	591.4	117.27	-119.73	710.99	115.22	-181.27	676.48	135.87	-119.33	498.12	105.83	-292.4	733.53	-194.45	-287.99	551.48	-153.84	-217.9	642.52	-151.52	-291.83	637.82	-172.79	-300.5	443.38	-138.12	-295.83	341.92	-56.557	-368.09	168.69	-51.994	-351.9	260.52	-126.65	-330.59	252.79	-58.058	-440.01	70.922	-96.587	-419.44	80.29	-15.746	-297.77	38.684	-63.475	-339.72	22.184	-139.22	-251.97	28.911	-94.689	-387.51	982.51	-76.888	-144.4	1592	-4.8158	-309.29	1022.1	-223.79	-284.21	1038.8	-289.07	-322.05	1562	-93.6	-138.27	107.26	8.537	-196.22	809.6	-292.3	-99.292	284.46	40.188	-122.6	291.54	106.81	-82.241	375.57	41.348	-115.22	194.35	38.816	14.422	55.764	106.13	-208.55	57.696	26.411	-332.35	1025	122.11	-14.523	62.648	68.395	-172.88	91.596	81.838	-69.483	35.502	125.52	-492.64	43.193	-39.637
293	1.465	-146.53	1590.4	-77.309	-309.29	1552	33.98	-314.93	1423.9	-42.412	-345.95	1139.7	-41.199	-189.13	1347.5	-51.709	-111.81	1123.4	-52.735	-356.88	1318.5	51.895	-174.4	938.11	-174.12	-157.67	956.82	94.783	-374.8	985.54	36.578	-237.62	1356.1	124	-280.27	1147.3	184.36	-312.58	1044.3	205.32	-269.06	898.73	219.92	-260.81	790.66	185.65	-311.98	794.48	239.27	-272.64	746.46	236.14	-257.41	1365.3	-217.11	-269.07	1159	-272.19	-192.53	931.9	-287.61	-141.53	831.36	-240.57	-127.6	788.57	-281.39	-213.15	761.59	154.46	-138.92	590.54	117.74	-114.31	710.09	115.39	-175.7	675.68	136.5	-113.85	496.79	106.45	-287.92	732.87	-194.17	-284.29	550.75	-153.66	-213.79	641.5	-151.34	-287.73	637.18	-172.63	-297.41	442.69	-137.95	-293.47	341.16	-56.376	-367.1	168.49	-51.817	-350.14	260.15	-126.5	-328.93	252.3	-57.888	-439.75	71.264	-96.453	-419.06	80.52	-15.593	-297.7	38.633	-63.436	-339.77	22.165	-139.09	-251.85	28.839	-94.815	-381.89	981.87	-76.407	-138.89	1591.2	-4.2994	-302.69	1021.4	-223.95	-277.61	1038.3	-289.2	-316.61	1561.4	-92.997	-120.41	105.25	8.8717	-187.13	810	-291.93	-87.445	283.6	40.62	-110.91	289.9	107.23	-73.483	375.23	41.751	-100.3	193.02	39.21	34.026	58.327	106.31	-189.05	53.415	26.699	-327.22	1024.2	122.35	4.8133	64.433	68.637	-154.45	88.367	82.163	-49.267	35.576	125.87	-492.47	43.796	-39.455
294	1.47	-141.07	1589.6	-76.766	-303.78	1551.3	34.603	-309.51	1423.1	-41.888	-340.15	1138.9	-40.803	-183.63	1346.8	-51.314	-106.08	1122.7	-52.6	-351.36	1317.5	52.244	-169.18	937.07	-173.94	-151.83	955.64	95.012	-368.81	984.82	37.059	-232.15	1355.1	124.45	-275.16	1146.4	184.71	-307.59	1043.5	205.61	-264.49	897.8	220.38	-256.53	789.66	186.11	-307.75	793.65	239.68	-268.63	745.46	236.55	-252.11	1364.8	-216.66	-263.22	1158.6	-272.05	-184.87	932.2	-287.49	-132.71	832.41	-240.28	-118.3	789.69	-281.01	-207.53	760.78	154.97	-133.69	589.54	118.3	-108.97	709.04	115.57	-170.23	674.77	137.18	-108.48	495.38	107.1	-283.42	732.19	-193.9	-280.59	550.02	-153.5	-209.66	640.47	-151.17	-283.62	636.54	-172.48	-294.3	442	-137.79	-291.11	340.4	-56.213	-366.12	168.3	-51.659	-348.39	259.79	-126.37	-327.27	251.81	-57.739	-439.48	71.617	-96.338	-418.7	80.762	-15.46	-297.64	38.587	-63.391	-339.82	22.141	-138.97	-251.74	28.762	-94.931	-376.24	981.21	-75.902	-133.38	1590.4	-3.7555	-296.08	1020.6	-224.06	-271.01	1037.8	-289.29	-311.17	1560.7	-92.362	-102.71	103.52	9.2309	-178.12	810.38	-291.55	-75.73	282.86	41.071	-99.321	288.37	107.67	-64.855	374.91	42.168	-85.512	191.89	39.625	53.387	61.207	106.39	-169.64	49.485	27.031	-322.05	1023.3	122.62	23.914	66.492	68.799	-136.1	85.447	82.518	-29.213	35.966	126.16	-492.32	44.421	-39.298
295	1.475	-135.61	1588.9	-76.193	-298.27	1550.5	35.256	-304.06	1422.2	-41.338	-334.33	1138	-40.371	-178.1	1346.1	-50.89	-100.32	1121.9	-52.428	-345.81	1316.5	52.617	-163.96	936.04	-173.76	-145.95	954.39	95.273	-362.77	984.07	37.576	-226.65	1354.1	124.92	-270.01	1145.5	185.08	-302.55	1042.6	205.93	-259.83	896.85	220.87	-252.14	788.66	186.6	-303.43	792.79	240.11	-264.5	744.44	236.97	-246.77	1364.3	-216.18	-257.38	1158	-271.88	-177.26	932.47	-287.35	-123.97	833.42	-240	-109.1	790.79	-280.63	-201.94	759.91	155.48	-128.6	588.41	118.94	-103.72	707.83	115.74	-164.85	673.77	137.9	-103.18	493.9	107.79	-278.9	731.51	-193.62	-276.87	549.28	-153.34	-205.51	639.44	-151.02	-279.5	635.9	-172.34	-291.2	441.3	-137.66	-288.76	339.63	-56.068	-365.13	168.11	-51.521	-346.64	259.42	-126.26	-325.61	251.32	-57.612	-439.21	71.984	-96.244	-418.35	81.019	-15.35	-297.57	38.549	-63.341	-339.88	22.112	-138.85	-251.62	28.681	-95.037	-370.57	980.52	-75.369	-127.88	1589.6	-3.1829	-289.47	1019.8	-224.11	-264.43	1037.3	-289.33	-305.73	1560	-91.696	-85.206	102.08	9.6158	-169.18	810.76	-291.17	-64.161	282.22	41.542	-87.855	286.97	108.14	-56.352	374.6	42.599	-70.898	190.96	40.061	72.45	64.384	106.37	-150.36	45.911	27.408	-316.85	1022.4	122.92	42.729	68.81	68.894	-117.88	82.847	82.905	-9.3834	36.66	126.38	-492.16	45.071	-39.166
